<svg width="1680" height="1050" viewBox="0 0 1680 1050" fill="none" xmlns="http://www.w3.org/2000/svg">
<g filter="url(#filter0_d)">
<path d="M0 147.713C128.476 188.114 530.634 270.753 840 270.753C1149.37 270.753 1502.23 188.114 1680 147.713M0 879.827C124.635 840.833 539.881 761.073 840 761.073C1140.12 761.073 1507.54 840.833 1680 879.827M70 1050C194.635 1011.01 539.881 889.621 840 889.621C1189.29 889.621 1437.54 1011.01 1610 1050M70 0C194.635 38.9939 539.881 147.713 840 147.713C1189.29 147.713 1437.54 38.9939 1610 0M0 338.699C128.476 379.1 530.634 399.301 840 399.301C1149.37 399.301 1502.23 379.1 1680 338.699M0 702.307C131.022 661.499 524.502 641.094 840 641.094C1155.5 641.094 1498.7 661.499 1680 702.307M0 522.34H1680" stroke="#FFB635" stroke-width="3"/>
</g>
<defs>
<filter id="filter0_d" x="-29.45" y="-30.4631" width="1738.78" height="1110.93" filterUnits="userSpaceOnUse" color-interpolation-filters="sRGB">
<feFlood flood-opacity="0" result="BackgroundImageFix"/>
<feColorMatrix in="SourceAlpha" type="matrix" values="0 0 0 0 0 0 0 0 0 0 0 0 0 0 0 0 0 0 127 0"/>
<feOffset/>
<feGaussianBlur stdDeviation="14.5"/>
<feColorMatrix type="matrix" values="0 0 0 0 1 0 0 0 0 0.713726 0 0 0 0 0.207843 0 0 0 1 0"/>
<feBlend mode="normal" in2="BackgroundImageFix" result="effect1_dropShadow"/>
<feBlend mode="normal" in="SourceGraphic" in2="effect1_dropShadow" result="shape"/>
</filter>
</defs>
</svg>
