<svg width="1280" height="800" viewBox="0 0 1280 800" fill="none" xmlns="http://www.w3.org/2000/svg">
<path d="M50.5 0L51.5 800M150.5 0L151.5 800M200.5 0L201.5 800M250.5 0L251.5 800M300.5 0L301.5 800M350.5 0L351.5 800M400.5 0L401.5 800M450.5 0L451.5 800M500.5 0L501.5 800M550.5 0L551.5 800M600.5 0L601.5 800M100.5 0L101.5 800M701.5 0L702.5 800M651.5 0L652.5 800M801.5 0L802.5 800M851.5 0L852.5 800M901.5 0L902.5 800M951.5 0L952.5 800M1001.5 0L1002.5 800M1051.5 0L1052.5 800M1101.5 0L1102.5 800M1151.5 0L1152.5 800M1201.5 0L1202.5 800M1252.5 0V800M751.5 0L752.5 800M0 49.5L1280 50M0 100.5L1280 100M0 150.5H1280M0 200.5H1280M0 249.5H1280M0 299.5H1280M0 350.5H1280M0 400.5H1280M0 450.5H1280M0 498.5H1280M0 549.5H1280M0 599.5H1280M0 649.5H1280M0 698.5H1280M0 748.5H1280" stroke="#59064A"/>
</svg>
